<?xml version="1.0" encoding="UTF-8"?>
<svg width="148.9" height="26" version="1.0" viewBox="0 0 148.9 26" xml:space="preserve" xmlns="http://www.w3.org/2000/svg" xmlns:cc="http://creativecommons.org/ns#" xmlns:dc="http://purl.org/dc/elements/1.1/" xmlns:rdf="http://www.w3.org/1999/02/22-rdf-syntax-ns#" xmlns:xlink="http://www.w3.org/1999/xlink"><defs><linearGradient id="linearGradient25330" x1="1190.6" x2="1186.8" y1="107.07" y2="39.93" gradientTransform="translate(53.155,58.059)" gradientUnits="userSpaceOnUse" xlink:href="#linearGradient11889"/><linearGradient id="linearGradient25328" x1="713.67" x2="828.44" y1="-42.257" y2="-53.831" gradientTransform="translate(157.01,-38.943)" gradientUnits="userSpaceOnUse" xlink:href="#linearGradient11889"/><linearGradient id="linearGradient11889"><stop stop-color="#ffd42a" offset="0"/><stop stop-color="#fff8db" offset="1"/></linearGradient><linearGradient id="linearGradient25326" x1="851.02" x2="983.14" y1="90.874" y2="90.874" gradientTransform="translate(95.955,2.419)" gradientUnits="userSpaceOnUse" xlink:href="#linearGradient11889"/></defs>


<metadata><rdf:RDF><cc:Work><dc:format>image/svg+xml</dc:format><dc:type rdf:resource="http://purl.org/dc/dcmitype/StillImage"/><cc:license rdf:resource="http://creativecommons.org/publicdomain/zero/1.0/"/><dc:publisher><cc:Agent rdf:about="http://openclipart.org/"><dc:title>Openclipart</dc:title></cc:Agent></dc:publisher><dc:title/><dc:date>2009-04-20T20:33:28</dc:date><dc:description>Golden compass by Francesco 'Architetto' Rollandin.
\n
\nThis image is so popular that it already migrated to OCAL through WPclipart:
\nhttp://openclipart.org/media/files/liftarn/1416</dc:description><dc:source>https://openclipart.org/detail/25199/architetto----bussola-by-anonymous-25199</dc:source><dc:creator><cc:Agent><dc:title>Anonymous</dc:title></cc:Agent></dc:creator><dc:subject><rdf:Bag><rdf:li>adventure</rdf:li><rdf:li>compass</rdf:li><rdf:li>geography</rdf:li><rdf:li>golden</rdf:li><rdf:li>hiking</rdf:li><rdf:li>magnetic</rdf:li><rdf:li>navigation</rdf:li><rdf:li>north</rdf:li><rdf:li>orientation</rdf:li><rdf:li>sailing</rdf:li><rdf:li>tool</rdf:li><rdf:li>travel</rdf:li></rdf:Bag></dc:subject></cc:Work><cc:License rdf:about="http://creativecommons.org/publicdomain/zero/1.0/"><cc:permits rdf:resource="http://creativecommons.org/ns#Reproduction"/><cc:permits rdf:resource="http://creativecommons.org/ns#Distribution"/><cc:permits rdf:resource="http://creativecommons.org/ns#DerivativeWorks"/></cc:License></rdf:RDF></metadata><g transform="matrix(.093983 0 0 .093983 -87.973 20.581)"><g transform="translate(-272.9,-10.632)"><g fill-rule="evenodd"><g transform="translate(431.14,-103.21)"><path d="m803.56-33.809c2.11-3.594-4.16-36.255 8.72-43.28 13.79-7.52 18.31-5.138 21.32-8.62 2.5-2.885 1.36-6.5 8.5-8.74 8.02-2.511 31.23-6.231 57.6-5.536 26.24 0.688 30.04 3.518 42.23 7.916 6.57 2.37 16.36 5.742 17.69 8.911 2.77 6.569 7.41 2.039 9.36 6.492 1.91 4.333 7.36 16.264 8.31 28.504 5.53 0.011 10.53 0.219 14.36 4.051s7.61 9.292 8.65 21.195c0.7 8.253 2.3 28.47 2.6 41.185 0.3 8.27 1.1 23.848-0.8 27.778-1.2 2.369-10.81 11.172-11.72 12.962-0.27 1.79 4.86-0.788 10.32 3.088 4.9 3.503 5.2 9.826 5.4 13.969 0.4 6.292 0.9 32.794-0.9 36.924-2.7 6.05-12.01 11.43-17.34 13.42 0.71 10.46-3.44 12.12-3.44 12.12s-0.77 10.61-3.3 14.07c-2.88 3.92-9.52 7.51-20.33 10.42-23.6 6.36-65.46 4.19-71.85 4.05-9.35-0.21-29.61-1.08-38.52-3.41-4.37-1.14-15.77-7.66-15.77-7.66s-7.43-5.11-10.63-7.02c-3.19-1.92-7.26-3.53-9.03-5.47-3.76-4.12-5.02-7.85-5.02-7.85s-9.25 1.05-14.02-7.86c-2.16-4.07-9.12-30.708-9.95-37.75-0.46-3.857-1.26-34.084 0.02-37.915 1.28-3.832 11.92-15.031 10.54-16.855-1.96-2.575-12.93-15.4-13.53-28.354-0.46-9.756 2.06-21.009 3.46-24.797 0.67-1.825 3.17-7.556 8.25-12.675 5.07-5.12 5.15-2.032 8.82-3.263z" fill="#3771c8" stroke="#000" stroke-width="3"/><path d="m949.47-48.311c13.89 1.818 32.88-1.382 39.97 3.986 4.06 3.074 9.14 9.509 10.15 21.412 0.71 8.253 2.31 28.47 2.61 41.185 0.3 8.27 1.1 23.848-0.8 27.778-0.7 1.445-6.61 8.045-12.48 13.273-4.02 0.218-10.35-0.308-40.15-3.346 3.8-25.558 0.95-90.903 0.7-104.29z" fill="#fab100"/><path d="m997.5 5.4941c0.24-11.29 0.94-22.46-0.76-31.295-1.69-8.835-7.62-15.455-10.67-15.576s-3.92 11.809-0.82 23.794 3.06 21.32 2.71 29.254c-0.2 4.662 0.23 24.058 4.69 13.92 4.47-10.138 4.74-14.88 4.85-20.097z" fill="#d75e17"/><path d="m966.56 57.142c11.06 0.973 16.2 1.3 22.79 1.966 1.67 0.169 7.97 0.95 10.35 2.894 5.4 4.403 5.2 9.826 5.5 13.969 0.4 6.292 0.7 32.479-1.2 36.619-1.3 3.08-6.29 7.13-11.24 10.5-2.42 1.64-15.24 5.86-25.41 5.49-1.81-10.08-1.43-68.714-0.79-71.438z" fill="#fab100"/><path d="m992.56 80.017c-0.36 6.506 0.12 6.65 3.44 2.745 3.05-3.6-0.26 10.963 3.42 23.408 4.38 14.85 3.38-26.007 3.08-31.335-0.4-8.446-10.46-18.008-9.77-6.406 0.18 3.175 0.18 5.247-0.17 11.588z" fill="#d75e17"/></g><g transform="translate(430.33,-103.79)"><path d="m876.08 165.73c-20.91-0.72-28.48-3.23-35.77-7.03-2.95-1.54-9.79-6.18-15.56-9.7-2.85-1.73-5.92-3.09-8.09-4.81-2.48-1.96-5.45-5.35-6.59-8.84-1.28-3.97-8.42-136.38-6.19-169.74 0.58-8.694 0.03-13.405 0.15-19.117 0.29-12.889 1.86-16.924 4.3-21.157 2.11-3.658 13.86-8.535 17.77-7.465 3.77 1.029 10.96 7.722 13.47 12.334 5.42 9.976 7.12 14.961 10.16 26.001 5.21 18.902 6.68 29.603 7.8 39.888 1.11 10.192 2.66 16.413 3.77 19.749 1.12 3.336-0.94 24.766-1.67 35.714-0.58 8.727-2.37 19.871-2.64 31.084-0.28 11.476-0.22 16.249-0.15 23.259 0.05 5.87-0.53 10.44 0.17 18.64 0.63 7.38 2.69 14.68 4.56 19.73 4.27 11.57 15.07 22.57 14.51 21.46z" fill="#5f8dd3" stroke="#000" stroke-width="2"/><path d="m821.64-77.514c4.21-0.323 7.13 1.777 10.07 4.62 3.18 3.091 4.75 7.527 6.44 10.361 2.83 4.761 9.55 26.702 6.63 27.61-1.51 0.47-8.24-16.029-12.1-17.032-3.72-0.968-4.26 15.353-5.13 13.1-6.3-16.336-4.19 0.907-6.5-0.505-3.97-2.428-6.35-12.02-7.49-6.692-2.23 10.404-4.15 6.39-4.25-0.771-0.05-4.206-1.65-13.714-0.15-20.734 1.38-6.422 7.55-9.58 12.48-9.957z" fill="#acf" stroke="#87aade" stroke-width="1px"/></g><g transform="matrix(1,0,0,1.0277,992.1,-22.06)"><g stroke-width="1px"><path d="m234.67-109.97c-8.21 6.89-13.58 20.53-13.19 34.115 0.43 14.85 10.85 28.752 16.44 30.867 3.77 1.426 41.5 0.327 41.5 0.327s4.93-0.93 7.45-3.454c2.53-2.525 3-2.889 3.91-4.78 1.54-3.154 0.9-10.88 0.9-12.322 0-1.443-1.29-13.561-2.04-19.237-0.33-2.503-1.77-12.324-2.85-19.266-0.48-3.04-2.47-7.63-6.07-8.35-3.61-0.72-29.37-0.72-30.81-0.72s-12.14 0.22-15.24 2.82z" stroke="#000"/><path d="m236.49-107.45c-8.07 6.94-11.62 20.405-10.68 33.016 1.07 14.551 5.93 22.35 13.07 26.64 5.15 3.094 27.43 1.488 27.43 1.488s12.77-0.394 15.9-2.103c1.87-1.022 4.24-1.678 6.49-6.174 1.57-3.135 1.15-8.832 1.15-10.274 0-1.443-1.29-10.15-1.9-17.489-0.41-5.052-2.26-14.29-3.3-21.064-0.47-3.04-3.31-6.02-6.92-6.75-3.6-0.72-28.16-0.42-29.6-0.42s-8.57 0.49-11.64 3.13z" fill="#ffd42a" stroke="#000"/><path d="m237.19-101.4c-4.65 2.72-8.02 20.315-6.76 27.278 0.71 3.935 0.67 6.716 2.12 9.846 2.21 4.753 5.14 10.82 7.91 12.009 4.6 1.971 11.51 2.443 20.05 1.786 8.55-0.657 20.62 0.244 23.99-3.617s-18.87-2.284-15.82-11.992c3.12-9.934-13.86 0.13-16.36-3.254-2.18-2.953 3.34-18.16-4.98-13.172-10.87 6.512-6.11-5.104-6.88-9.027-0.66-3.444 1.26-12.517-3.27-9.857z" fill="#fea" stroke="#fea"/></g><g fill="#e3e2db" stroke="#000" stroke-width="1.1718"><path d="m238.46-110.06s27.8-1.71 31.38-0.77c3.58 0.93 6.75 1.76 8.31 5.52 1.56 3.75 2.36 13.193 1.87 20.802-1.65-0.111-1.05-0.078-2.61-0.054-0.17-4.905 0.07-8.351-0.57-12.409-0.68-4.339-0.94-7.579-6.08-9.689s-35.97-0.42-35.97-0.42z"/><path d="m280.61-80.192-3.22 0.107s-2.61 5.817-3.02 9.335c-0.43 3.602 2.76 3.982 4.95 3.886 2.44-0.107 5.06-2.176 4.58-3.865-1.14-4.073-3.29-9.463-3.29-9.463zm-2.56 7.45c0.37-0.147 1.95-0.221 2.43 0.094 0.53 0.357 1.04 1.372 0.71 2.232-0.32 0.861-1.04 1.33-2.32 1.424-1.28 0.093-1.81-0.791-2.02-1.648-0.2-0.857 0.73-1.919 1.2-2.102z"/><path d="m277.23-84.381s-1.2 1.035-1.84 2.697c-0.64 1.661-1.41 3.791-0.37 4.324 1.03 0.532 2.07-2.26 4.09-2.26 1.19 0 2.83 1.754 3.84 1.294s0.15-2.346-0.77-3.887-1.96-2.153-1.96-2.153z"/></g></g><path d="m1227.4-69.794c-1.6 4.616-10.2 15.739-10.8 19.759-0.8 5.938-0.5 22.421-0.4 29.961 0.2 8.763 7.8 37.649 9.5 41.241 1.9 3.783 4 10.357 14.2 10.575 3.8 0.081 9.9 1.544 22.7 1.928 4.1 0.121 14-0.283 17.9-0.596 4.6 0.136 1.1-14.138 0-19.491-0.8-3.8218-1.1-20.301-0.5-31.2 0.6-10.448 5.4-30.723 6.2-38.506 0.3-3.649 0.1-7.906-1.1-9.269-2.1-2.27-4.7-2.061-7.1-2.63-2.4-0.57-25.1 0.192-29.4 0.244-3 0.038-14.2-0.035-21.2-2.016z" stroke="#000" stroke-width=".97664px"/><g transform="translate(430.33,-103.79)"><path d="m798.27 39.076c-2.36 1.755-6.3 6.999-8.59 14.272-1.66 5.289-0.7 29.624-0.59 36.599 0.13 8.105 6.3 28.983 7.9 32.313 1.69 3.5 3.6 9.58 12.97 9.78 3.44 0.07 9.03 1.43 20.67 1.78 3.74 0.11 12.76-0.26 16.35-0.55 4.23 0.13 1.04-13.08 0.01-18.03-0.74-3.53-1.01-18.778-0.47-28.859 0.53-9.665 4.9-28.42 5.63-35.619 0.34-3.375 0.15-7.313-1-8.573-1.93-2.101-4.27-1.906-6.45-2.433-2.18-0.528-22.3-0.39-26.15-0.342-2.74 0.035-18.59-1.59-20.28-0.338z" fill="#ffd42a" stroke="#000" stroke-width=".89729px"/><path d="m839.16 86.693c1.54 2.669 1.59 5.366 2.25 9.262 1 5.845 0.3 7.385 1.35 13.015 1.22 6.6-0.08 16.22-1.78 7.28-1.59-8.34-5.88-10.72-6.06-12.81-0.25-2.84 3.71-2.89 2.53-6.858-1.14-3.849 0.75-11.562 1.71-9.889z" fill="#fab100" stroke="#ffbe00" stroke-width=".52179px"/><path d="m800.17 43.536c-4.65 2.799-6.07 7.849-6.8 16.05-0.67 7.52 0.5 22.584 0.74 32.583 0.15 6.31 2.53 15.381 6.02 24.121 2.47 6.21 6.06 9.21 18.72 11.73 27.98 5.56-7.05-5.89-11.32-15.41-6.22-13.857-6.77-40.162-2.06-57.207 3.4-12.298 21.4-6.801 20.64-10.832-0.67-3.541-21.41-3.761-25.94-1.035z" fill="#fea" stroke="#fea" stroke-width="1.0138px"/></g><g stroke="#000"><path d="m1278.8-64.278c-7.6 3.677-9.6 5.088-13.6 12.151-2.8 4.745-5 17.268-5.4 21.849-2.6 29.44 9.5 47.604 9 55.424-1.6-0.114-1.9-0.081-3.5-0.056 0.8-9.592-10.2-24.084-8.6-53.793 0.3-4.223 0.1-16.696 7.7-28.071 4.1-6.1 9.3-7.52 9.3-7.52z" fill="#e3e2db" stroke-width="1.1879"/><g transform="translate(678.71,-115.2)" fill="#e3e2db" stroke-width="1.1879"><path d="m581.24 99.284-3.22 0.11s-2.6 5.976-3.02 9.596c-0.43 3.7 2.77 4.09 4.95 3.99 2.45-0.11 5.06-2.24 4.58-3.97-1.14-4.19-3.29-9.726-3.29-9.726zm-2.56 7.656c0.37-0.15 1.95-0.23 2.43 0.1 0.53 0.36 1.04 1.41 0.72 2.29-0.33 0.89-1.05 1.37-2.33 1.46-1.28 0.1-1.81-0.81-2.02-1.69-0.2-0.88 0.74-1.97 1.2-2.16z"/><path d="m577.87 94.979s-1.21 1.064-1.85 2.771c-0.64 1.708-1.41 3.9-0.37 4.44 1.03 0.55 2.08-2.319 4.09-2.319 1.2 0 2.83 1.799 3.84 1.329s0.15-2.409-0.77-3.993c-0.91-1.584-1.96-2.213-1.96-2.213z"/></g><g transform="translate(339.4,-114.09)"><path d="m967.26 177.02c7.34 1.93 23.9 1.66 31.55 1.45 5.19-0.15 40.29 1.69 59.39-5.74 8.8-3.4 14-7.3 16.3-11.35 2-3.57 1.8-15.75 1.8-15.75s2.4-63.37 1-79.051c-1.4-16.131-1.5-46.975-3.5-58.313-62.1-1.3822-86.9 2.679-122.94-0.2418 1.11 10.144 1.93 17.065 2.91 20.352 0.98 3.286-0.87 24.625-1.25 35.607-0.3 8.754-3.45 18.451-3.45 29.678 0 11.489-0.43 15.099-0.24 22.109 0.16 5.87-0.98 12.76-0.25 20.92 0.66 7.36 1.87 13.31 5.67 23.17 4.31 11.17 13.49 18.25 13.01 17.16z" fill="url(#linearGradient25326)" stroke-width="2.7145"/><path d="m973.76 176.28c6.61 1.74 20.72 0.69 27.64 0.5 4.7-0.13 36.3 1.52 53.5-5.17 4.6-1.78 10.7-7.36 13.8-12.62 2.3-3.8 2.5-12.18 2.5-15.24-0.1-18.92 2.2-53.675 0.9-67.806-1.2-14.538-2.5-58.058-4.4-68.275-55.9-1.246-75.04 1.6074-107.92 0.5881 2.62 9.9479 2.66 47.526 1.61 57.822-1.57 15.519-4.42 44.651-4.25 50.971 0.15 5.29-0.88 16.33-0.22 23.69 0.6 6.63 0.88 10.38 4.3 19.26 3.88 10.07 12.97 17.26 12.54 16.28z" fill="#2c5aa0" stroke-width="2.4462"/></g><path d="m1287.8-35.181 14.1 0.753s1 8.66-1.5 10.194c-1.8 1.1-3.8 0.999-3.8 0.999l-0.5 5.682 3.7-0.064-0.5 5.354-13.3-0.762 0.2-4.602 4.1-0.099 0.5-5.627s-2.9-0.173-3.9-2.887c-0.9-2.714 1-8.823 0.9-8.941z" fill="#e6e6e6" stroke-width="2.1241"/><path d="m1408.1-45.038 11.3-0.77s0.4 5.801 0.4 11.89-0.6 11.519-0.6 11.519l-11.4 0.362 0.3-4.95 3.3-0.086-0.3-5.265s-2.2-0.749-3.3-3.37c-1.2-2.622 0.4-9.223 0.3-9.33z" fill="#e6e6e6" stroke-width="2.1241"/><g transform="matrix(1.0048 -.05623 .040957 1.0124 761.79 -110.71)" stroke-width="1px"><path d="m538.83 39.164s0.08 28.996 0 33.338c-0.14 6.988-0.11 19.001 3.3 21.087 3.86 2.365 9.46 2.767 15.4 3.069 7.82 0.398 16.99 0.767 29.51 0.602 20.94-0.277 37.59 3.19 45.82-0.994 3.38-1.718 3.56-5.131 3.8-9.958 0.65-13.125-1.52-45.888-1.58-47.778-2.26 0.357-26.22-5.026-51.68-5.053-22.9-0.024-44.72 5.834-44.57 5.687z" fill="#fab100"/><path d="m539.19 39.104s-0.56 29.323-0.65 33.665c-0.14 6.988 1.01 16.854 2.56 19.646 1.55 2.791 4.93 4.21 9.27 3.279 4.35-0.93 9.13-2.849 10.38-8.122 1.24-5.272-0.19-20.021-0.47-24.091-0.34-4.868-1.82-20.574-2.07-27.834-4.29 0.678-19.33 3.768-19.02 3.457z" fill="#fea"/><path d="m546.86 37.48 2.49-0.411 0.25 56.733-2.78 0.164z" fill="#f2f2f2"/></g></g><path d="m1350.1-68.025c1.1-10.638 8.9 4.163 12 7.462 4.1 4.297 30.3 4.425 31.4 5.983 3.1 4.265-13.6 4.502-19.1 4.918-13.3 1.016-37 0.379-41.8 0.377-1.2 0-1.9-1.149-1.5-2.531 1.5-4.969 1.3-12.769 0.4-18.571-0.9-5.235-2.6-11.606-2.6-15.116-0.1-3.371 2-3.593 3.7-1.339 3.1 4.085 16.5 29.46 17.5 18.817z" fill="#d75e17"/><g transform="matrix(.99932 .036957 -.036957 .99932 739.94 -188.81)" fill="#e3e2db" stroke="#000" stroke-width="1.1879"><path d="m581.24 99.284-3.22 0.11s-2.6 5.976-3.02 9.596c-0.43 3.7 2.77 4.09 4.95 3.99 2.45-0.11 5.06-2.24 4.58-3.97-1.14-4.19-3.29-9.726-3.29-9.726zm-2.56 7.656c0.37-0.15 1.95-0.23 2.43 0.1 0.53 0.36 1.04 1.41 0.72 2.29-0.33 0.89-1.05 1.37-2.33 1.46-1.28 0.1-1.81-0.81-2.02-1.69-0.2-0.88 0.74-1.97 1.2-2.16z"/><path d="m577.87 94.979s-1.21 1.064-1.85 2.771c-0.64 1.708-1.41 3.9-0.37 4.44 1.03 0.55 2.08-2.319 4.09-2.319 1.2 0 2.83 1.799 3.84 1.329s0.15-2.409-0.77-3.993c-0.91-1.584-1.96-2.213-1.96-2.213z"/></g><g transform="translate(421.21,-58.631)" stroke="#000" stroke-width="2"><path d="m843.34-129.41c-1.62 2.04-6.54 2.06-5.56 2.31 0.47 0.12 3.25 2.44 6.5 5.52 3.42 3.23 6.39 8.49 8.13 11.53 2.56 4.48 7.46 18.543 10.89 33.634 1.23 5.436 2.37 14.328 3.45 20.601 2.02 11.668 3.63 22.081 4.05 23.643 0.99 3.703 4.12 3.554 7.92 2.37 4.88-1.523 25.76-5.542 32.47-5.66 6.69-0.117 25.38-1.303 34.66-0.739 14.62 0.892 32.65 4.334 35.34 4.579 2.68 0.244 11.97 1.904 11.55-5.999-0.31-5.792-1.25-15.017-1.93-19.452-0.83-5.345-3.33-30.654-4.36-35.903-1.28-6.56-2.54-10.444-4.03-15.224-1.52-4.91-3.22-10.88-5.77-14.74-8.69-1.24-5.08-2.78-9.68-6.75-1.73-1.52-13.79-6.11-24.69-9.89-6.48-2.25-12.49-3.27-19.61-3.89-20.05-1.75-40.99 0.11-46.39 0.48-5.17 0.36-25.76 3.88-28.2 6.07-2.42 2.17-3.68 6.17-4.74 7.51z" fill="url(#linearGradient25328)"/><path d="m846.93-127c20.89 18.76 22.58 53.247 24.59 69.407 0.83 6.634 3.55 28.229 7.35 27.046 4.88-1.524 25.76-5.542 32.47-5.661 6.69-0.117 25.37-1.302 34.65-0.739 14.62 0.893 33.35 3.925 35.95 4.645 7.81 2.165 3.52-12.081 2.77-22.665-0.82-11.429-3.77-29.168-5.48-36.703-1.61-7.097-7.52-30.78-12.12-38.76-1.72-1.52-13.78-6.11-24.69-9.89-6.48-2.25-12.48-3.28-19.6-3.9-20.05-1.74-40.99 0.12-46.39 0.49-5.17 0.35-25.74 3.89-28.21 6.07-7 6.18-5.95 6.47-1.29 10.66z" fill="#3771c8"/></g></g><g transform="translate(116.86,-104.11)"><g fill-rule="evenodd"><g stroke="#000"><path d="m1222.2 166.24c-8.7 0.02-18.6 1.65-26-4.01-6.9-4.97-11.3-13.23-10.8-21.79-0.1-9.41 0.1-19.13 3.4-28.06 3.2-8.58 10-15.801 18.9-18.618 14.2-5.666 29.8-6.132 44.9-5.597 10.5 0.92 21.6 3.049 30.2 9.614 5.6 6.031 5.8 14.811 7 22.511 1.1 10.64 1.7 22.73-5.1 31.7-6.2 7.95-16.3 11.82-26.1 11.99-12.1 1.28-24.2 2.08-36.4 2.26z" fill="#ffd42a" stroke-width="1px"/><path d="m1224.8 166.33c-7.9 0.06-17 1.5-23.4-4.13-5.8-4.52-9.2-11.78-8.5-19.1-0.1-10.98 0.4-23.19 7.9-31.93 5.6-6.8 14.6-9.11 22.8-10.96 10.5-1.836 21.3-2.224 31.8-1.06 7.9 1.08 16.3 3.09 22.4 8.43 4.7 5.98 4.8 14.02 5.8 21.23 0.9 9.53 0.6 20.62-6.9 27.63-5.6 5.62-13.7 7.86-21.5 8.05-10.1 1.03-20.2 1.7-30.4 1.84z" fill="url(#linearGradient25330)" stroke-width=".86651px"/><path d="m1228.1 166.38c-7.4 0.11-16.2 1.37-22.1-4.33-5-4.18-7.8-10.72-7.2-17.22-0.1-10.69 0.6-22.94 8.9-30.79 6.5-6.07 15.7-7.85 24.3-9.19 12.6-1.3 25.8-1.58 37.8 3.2 4.1 1.68 8.3 4.28 9.6 8.82 2.3 6.78 2.7 14.07 3.1 21.17 0.3 7.77-2 16.23-8.6 20.97-6.4 5.24-14.9 5.57-22.8 6.15-7.6 0.68-15.3 1.12-23 1.22z" fill="#fab100" stroke-width=".79625px"/></g><path d="m1225.9 94.933c-2.6-3.595-11.3-0.73-16.4 1.502-2.5 1.112-8.2 3.477-10.7 6.185-2.7 2.9-5.8 7.56-7.5 11.63-1.1 2.84-2.2 10.37-3.3 24.66 3.9-20.04 6.5-28.27 12.9-32.82 12.7-9.147 27.5-7.701 25-11.157z" fill="#fea" stroke="#fea" stroke-width=".68501px"/><path d="m1227 130.18c1-10.63 11.8 13.53 15 16.83 4 4.3 30.2 4.43 31.4 5.98 3 4.27-13.7 4.51-19.1 4.92-13.4 1.02-29.6 1.5-34.4 1.5-7.9 0-14.5 0.26-15-19.21-0.2-5.3 3.9-14.62 3.8-18.13 0-3.37 2.1-3.59 3.8-1.34 1.3 1.74 0.3 13.34 4.8 15 7.6 2.86 9.1 0.56 9.7-5.55z" fill="#d75e17"/></g><g transform="translate(658.42,15.503)"><g transform="matrix(.9608 .27726 -.27726 .9608 53.063 -162.12)" fill="#e3e2db" fill-rule="evenodd" stroke="#000" stroke-width="1.1879"><path d="m581.24 99.284-3.22 0.11s-2.6 5.976-3.02 9.596c-0.43 3.7 2.77 4.09 4.95 3.99 2.45-0.11 5.06-2.24 4.58-3.97-1.14-4.19-3.29-9.726-3.29-9.726zm-2.56 7.656c0.37-0.15 1.95-0.23 2.43 0.1 0.53 0.36 1.04 1.41 0.72 2.29-0.33 0.89-1.05 1.37-2.33 1.46-1.28 0.1-1.81-0.81-2.02-1.69-0.2-0.88 0.74-1.97 1.2-2.16z"/><path d="m577.87 94.979s-1.21 1.064-1.85 2.771c-0.64 1.708-1.41 3.9-0.37 4.44 1.03 0.55 2.08-2.319 4.09-2.319 1.2 0 2.83 1.799 3.84 1.329s0.15-2.409-0.77-3.993c-0.91-1.584-1.96-2.213-1.96-2.213z"/></g></g><g transform="matrix(.9377 -.34743 .34743 .9377 669.78 225.9)" fill="#e3e2db" fill-rule="evenodd" stroke="#000" stroke-width="1.1879"><path d="m581.24 99.284-3.22 0.11s-2.6 5.976-3.02 9.596c-0.43 3.7 2.77 4.09 4.95 3.99 2.45-0.11 5.06-2.24 4.58-3.97-1.14-4.19-3.29-9.726-3.29-9.726zm-2.56 7.656c0.37-0.15 1.95-0.23 2.43 0.1 0.53 0.36 1.04 1.41 0.72 2.29-0.33 0.89-1.05 1.37-2.33 1.46-1.28 0.1-1.81-0.81-2.02-1.69-0.2-0.88 0.74-1.97 1.2-2.16z"/><path d="m577.87 94.979s-1.21 1.064-1.85 2.771c-0.64 1.708-1.41 3.9-0.37 4.44 1.03 0.55 2.08-2.319 4.09-2.319 1.2 0 2.83 1.799 3.84 1.329s0.15-2.409-0.77-3.993c-0.91-1.584-1.96-2.213-1.96-2.213z"/></g></g></g><path d="m998.39-201.35c2.41-2.71 9.91-4.08 12.51-4.45 6.3-0.89 18-3.45 18.9-1.13 0.4 1.21-10.4 3.72-12.6 6.21-2.1 2.32 14.5-0.17 12.8 0.89-11.8 7.6-1.1 9.05-2.1 10.98-1.9 3.32 2.9 6.38 8.7 6.12 8.6-0.38 4.8 3.67-1 4.05-3.4 0.22-12 1.64-19.4 3.13-3.3-9.18-10.2-21.1-17.81-25.8z" fill="#acf" fill-rule="evenodd" opacity=".6" stroke="#87aade" stroke-width=".81244px"/><path d="m1019.6-167.67c6.5 0.04 10.4-1.28 13.6-1.82 5.8-0.98 11.1-2.53 16.1 1.93 0.6 0.55-9.3 2.62-12.9 4.09-2.7 1.13 7.8 4.18 5.1 6.59-4.8 4.44-5.6 14 5.2 15.92 12.1 4.47-3.5 9.97 1.4 13.05 5.3 3.37 17.5 10.96 10.8 12.75-3 0.8-18.3 1.69-26.9 4.48-0.5-4.56-4.6-12.33-5-23.36-0.5-16.6-4.4-26.45-7.4-33.63z" fill="#acf" fill-rule="evenodd" opacity=".6" stroke="#87aade" stroke-width="1px"/></g><g stroke-width=".46429" aria-label="4Travellers.blog"><path d="m35.616 10.464 0.14857-4.1786q0-0.18572 0.31572-0.31572 0.31572-0.13 0.63143-0.13 0.33429 0 0.33429 0.14857 0 0.35286-0.09286 2.0614-0.07429 1.7086-0.07429 2.6557 0 0.92858 0.09286 1.5972 0.01857 0 0.33429-0.01857 0.31572-0.03714 0.55714-0.03714 0.24143-0.01857 0.53857 0 0.61286 0.03714 0.61286 0.35286 0 0.44572-0.50143 0.52-0.48286 0.09286-0.92858 0.09286-0.44572-0.01857-0.55714-0.01857 0.13 2.8229 0.13 3.1757 0 0.35286 0 0.59429 0.01857 0.22286 0 0.29714 0 0.07429-0.05571 0.26-0.03714 0.16714-0.13 0.24143-0.27857 0.18572-0.68714 0.18572-0.39 0-0.39-0.14857 0-2.0243-0.14857-4.5872-0.09286-0.03714-0.65-0.03714l-2.8414 0.05572q-2.3029 0-2.3029-0.48286 0-0.03714 0.01857-0.09286 0.89143-2.6372 1.2071-4.2157 0.33429-1.5971 0.70572-2.1543 0.37143-0.52 0.83572-0.53857 0.35286 0 0.48286 0.13 0.13 0.13 0.05571 0.29714-0.59429 1.2443-1.17 3.4729-0.57572 2.2286-0.70572 2.6372l4.3272 0.03714q-0.09286-1.1514-0.09286-1.8572z"/><path d="m39.148 5.6354q0-0.89143 6.3886-0.89143 1.4671 0 3.77 0.13 2.3029 0.11143 2.3772 0.33429-0.03714 0.83572-1.5414 0.83572-0.42714 0-1.43-0.092858t-1.7272-0.092858q-0.70572 0-0.70572 0.31572 0 3.9929-0.18572 11.904-0.39 0.27857-1.1514 0.27857-0.01857-0.81715-0.01857-1.95l0.09286-8.0229q0-1.4486-0.03714-2.4329-0.39-0.037143-1.0214-0.037143-0.61286 0-1.9314 0.11143-1.3186 0.092858-1.8572 0.092858-1.0214 0-1.0214-0.48286z"/><path d="m52.026 16.203 0.05571 1.0586q0 0.40857-0.24143 0.57572-0.22286 0.14857-0.46429 0.14857-0.22286 0-0.46429-0.07429-0.40857-2.1543-0.63143-5.3672-0.20429-3.2129-0.24143-3.64 0.27857-0.26 0.57572-0.26 0.31572 0 0.55715 0.074286 0.07429 0.53857 0.11143 2.3772 0.03714 1.8386 0.09286 2.3029 0.26-1.56 0.92858-2.9157 0.37143-0.76143 0.96572-1.2071 0.61286-0.46429 1.3-0.46429 0.70572 0 1.2814 0.63143 0.59429 0.61286 0.59429 1.1143 0 0.18572-0.22286 0.29714-0.22286 0.09286-0.50143 0.09286-0.26 0-0.40857-0.20429-0.14857-0.20429-0.20429-0.44572-0.05571-0.26-0.24143-0.46429-0.18572-0.20429-0.50143-0.20429-0.83572 0-1.43 1.5043-0.91 2.2472-0.91 5.07z"/><path d="m63.257 12.674-0.09286 2.1357q0 1.6157 0.37143 2.1729 0.22286 0.37143 0.61286 0.37143 0.11143 0 0.31572-0.05571 0.39-0.11143 0.65 0.11143-0.13 0.65-1.3 0.65-0.79857 0-1.0586-0.66857-0.20429-0.50143-0.29714-1.2443-0.09286-0.76143-0.14857-1.04-1.2071 2.3029-2.34 2.8043-0.57572 0.26-1.3371 0.26-0.76143 0-1.1886-0.72429-0.40857-0.74286-0.40857-2.1543t0.46429-2.9529q0.46429-1.56 1.3557-2.6186 0.89143-1.0771 1.95-1.0771 1.5229 0 2.0243 1.2629 0.42714 1.0771 0.42714 2.7672zm-4.55-0.59429q-0.26 1.0029-0.39 1.9129-0.13 0.89143-0.13 1.5971 0 0.68715 0.27857 1.1886 0.29714 0.50143 0.76143 0.50143 1.0029 0 1.9314-1.8943t0.92858-3.5286q0-1.0586-0.55714-1.7457-0.37143-0.44572-0.98429-0.44572-0.59429 0-1.0957 0.70572-0.48286 0.68715-0.74286 1.7086z"/><path d="m64.858 9.0897q0.16714-0.35286 0.72429-0.35286 0.24143 0 0.40857 0.11143 0.52 1.43 1.0214 2.8786 0.94715 2.6557 1.7643 4.1972 0.39-2.2657 1.5043-4.5686 1.1329-2.3029 2.0614-2.3029 0.27857 0 0.55714 0.13-2.1357 2.8043-3.0643 7.4286-0.18572 1.0771-0.40857 1.2257-0.24143 0.16714-0.50143 0.16714t-0.40857-0.11143q-0.13-0.11143-0.20429-0.22286-0.05571-0.11143-0.16714-0.37143-0.09286-0.26-0.14857-0.35286-1.8943-3.5472-3.1386-7.8557z"/><path d="m74.658 14.253q-0.03714 0.37143-0.03714 0.50143 0 1.1143 0.66857 1.7271 0.68714 0.61286 1.6157 0.61286t1.5043-0.26q0.59429-0.26 0.85429-0.55714 0.66857-0.83572 1.2257-0.83572 0.20429 0 0.48286 0.11143-0.18572 0.91-1.4114 1.6714-1.2071 0.74286-3.0457 0.74286-1.3 0-2.2472-0.81715-0.92858-0.83572-0.92858-2.2657 0-1.43 0.55714-2.7672 0.57572-1.3557 1.6343-2.3029 1.0771-0.96572 2.1729-0.96572 1.1143 0 1.7829 0.46429 0.68714 0.44572 0.68714 1.3186 0 1.6157-1.4486 2.6743-1.43 1.04-3.0457 1.04-0.42714 0-1.0214-0.09286zm1.4114-0.61286q0.87286 0 1.56-0.55714 0.68714-0.55714 0.96572-1.17 0.29714-0.61286 0.29714-1.1143t-0.39-0.87286q-0.39-0.39-0.91-0.39-0.92858 0-1.7272 1.2814-0.78 1.2814-1.1143 2.6557 0.81715 0.16714 1.3186 0.16714z"/><path d="m83.102 6.9169q0-1.8386-0.50143-2.47 0.24143-0.35286 0.83572-0.35286 0.11143 0 0.24143 0.018571 0.46429 0.46429 0.46429 2.6929 0 1.2071-0.11143 2.8043-0.22286 2.7857-0.22286 4.0857 0 3.51 1.3557 3.51 0 0 0.68715-0.13 0.16714 0 0.27857 0.14857-0.05571 0.66857-1.0957 0.66857-1.0214 0-1.5786-0.61286-0.55714-0.63143-0.70572-1.56-0.13-0.94715-0.13-1.56 0-0.61286 0.01857-1.3371 0.01857-0.74286 0.16714-2.1172 0.29714-2.7857 0.29714-3.7886z"/><path d="m87.527 6.9169q0-1.8386-0.50143-2.47 0.24143-0.35286 0.83572-0.35286 0.11143 0 0.24143 0.018571 0.46429 0.46429 0.46429 2.6929 0 1.2071-0.11143 2.8043-0.22286 2.7857-0.22286 4.0857 0 3.51 1.3557 3.51 0 0 0.68714-0.13 0.16714 0 0.27857 0.14857-0.05572 0.66857-1.0957 0.66857-1.0214 0-1.5786-0.61286-0.55714-0.63143-0.70572-1.56-0.13-0.94715-0.13-1.56 0-0.61286 0.01857-1.3371 0.01857-0.74286 0.16714-2.1172 0.29714-2.7857 0.29714-3.7886z"/><path d="m92.286 14.253q-0.03714 0.37143-0.03714 0.50143 0 1.1143 0.66857 1.7271 0.68714 0.61286 1.6157 0.61286t1.5043-0.26q0.59429-0.26 0.85429-0.55714 0.66857-0.83572 1.2257-0.83572 0.20429 0 0.48286 0.11143-0.18572 0.91-1.4114 1.6714-1.2071 0.74286-3.0457 0.74286-1.3 0-2.2472-0.81715-0.92858-0.83572-0.92858-2.2657 0-1.43 0.55714-2.7672 0.57572-1.3557 1.6343-2.3029 1.0771-0.96572 2.1729-0.96572 1.1143 0 1.7829 0.46429 0.68714 0.44572 0.68714 1.3186 0 1.6157-1.4486 2.6743-1.43 1.04-3.0457 1.04-0.42714 0-1.0214-0.09286zm1.4114-0.61286q0.87286 0 1.56-0.55714 0.68714-0.55714 0.96572-1.17 0.29714-0.61286 0.29714-1.1143t-0.39-0.87286q-0.39-0.39-0.91-0.39-0.92858 0-1.7272 1.2814-0.78 1.2814-1.1143 2.6557 0.81715 0.16714 1.3186 0.16714z"/><path d="m101.94 16.203 0.0557 1.0586q0 0.40857-0.24143 0.57572-0.22286 0.14857-0.46429 0.14857-0.22286 0-0.46429-0.07429-0.40857-2.1543-0.63143-5.3672-0.20428-3.2129-0.24143-3.64 0.27858-0.26 0.57572-0.26 0.31571 0 0.55714 0.074286 0.0743 0.53857 0.11143 2.3772 0.0371 1.8386 0.0929 2.3029 0.26-1.56 0.92858-2.9157 0.37143-0.76143 0.96571-1.2071 0.61286-0.46429 1.3-0.46429 0.70572 0 1.2814 0.63143 0.59429 0.61286 0.59429 1.1143 0 0.18572-0.22286 0.29714-0.22286 0.09286-0.50143 0.09286-0.26 0-0.40857-0.20429-0.14857-0.20429-0.20429-0.44572-0.0557-0.26-0.24143-0.46429-0.18571-0.20429-0.50143-0.20429-0.83572 0-1.43 1.5043-0.91001 2.2472-0.91001 5.07z"/><path d="m112.18 10.594q-0.16714-0.42714-0.63143-0.66857-0.46428-0.24143-1.1514-0.24143-0.68714 0-1.3 0.40857-0.59429 0.40857-0.59429 1.0957 0 0.68715 0.55714 1.0957 0.57572 0.39 1.3743 0.59429 0.81715 0.20429 1.6343 0.44572 0.81714 0.22286 1.3743 0.76143 0.57571 0.52 0.57571 1.3743 0 1.2443-1.04 1.8943-1.0214 0.65-2.47 0.65-0.85429 0-2.2472-0.46429-1.3743-0.46429-1.3743-1.1143 0-0.48286 0.81714-0.48286 0.24143 0 0.63143 0.29714 1.1886 0.87286 2.4329 0.87286 0.66857 0 1.1514-0.22286 0.89144-0.42714 0.89144-1.3743 0-0.57572-0.57572-0.92858-0.55715-0.35286-1.3743-0.55714-0.79858-0.20429-1.6157-0.44572-0.81715-0.24143-1.3929-0.79857-0.55715-0.57572-0.55715-1.4486 0-1.1329 1.0214-1.8386 1.0214-0.70572 2.5257-0.70572 1.0214 0 1.8386 0.53857 0.83571 0.52 0.83571 1.5229 0 0.66858-0.76143 0.66858-0.31571 0-0.42714-0.11143-0.0929-0.11143-0.11143-0.39 0-0.29714-0.0371-0.42714z"/><path d="m116.55 18.58q-0.33429 0-0.72429-0.26-0.39001-0.24143-0.39001-0.59429 0-0.35286 0.40858-0.66857 0.40857-0.33429 0.83572-0.33429 0.42714 0 0.72428 0.24143 0.29715 0.24143 0.29715 0.61286 0 0.35286-0.40857 0.66857-0.39001 0.33429-0.74286 0.33429z"/><path d="m120.04 4.6697q0.22286-0.40857 0.81715-0.40857 0.13 0 0.26 0.037143 0.0371 0.98429 0.0371 5.4972 0.0186-0.018572 0.16714-0.16714 0.16715-0.14857 0.20429-0.18572 0.0371-0.037143 0.18572-0.16714 0.14857-0.14857 0.22285-0.18572 0.0929-0.055715 0.24143-0.14857 0.14857-0.11143 0.26-0.14857 0.11143-0.055715 0.26-0.11143 0.27858-0.092857 0.65001-0.092857 1.3743 0 2.21 1.1514 0.83571 1.1329 0.83571 2.5443t-0.42714 2.6929q-0.42715 1.2629-1.3186 2.21-0.89143 0.94715-2.08 0.94715-1.17 0-1.9686-0.87286-0.78-0.87286-0.78-1.9872 0-1.1329 0.13-4.16 0.13-3.0457 0.13-4.3643 0-1.3371-0.0371-2.08zm2.6557 12.554q0.72429 0 1.3-0.68714 1.17-1.3557 1.17-3.8443 0-1.3371-0.52-2.3586-0.52-1.04-1.4672-1.04-0.53857 0-0.94714 0.53857-0.40858 0.52-0.63143 1.3929-0.42715 1.6529-0.42715 3.6772 0 1.7086 0.70572 2.0986 0.31571 0.18572 0.81714 0.22286z"/><path d="m128.8 6.9169q0-1.8386-0.50143-2.47 0.24142-0.35286 0.83571-0.35286 0.11143 0 0.24143 0.018571 0.46429 0.46429 0.46429 2.6929 0 1.2071-0.11143 2.8043-0.22286 2.7857-0.22286 4.0857 0 3.51 1.3557 3.51 0 0 0.68715-0.13 0.16714 0 0.27857 0.14857-0.0557 0.66857-1.0957 0.66857-1.0214 0-1.5786-0.61286-0.55714-0.63143-0.70571-1.56-0.13-0.94715-0.13-1.56 0-0.61286 0.0186-1.3371 0.0186-0.74286 0.16714-2.1172 0.29715-2.7857 0.29715-3.7886z"/><path d="m133.25 10.315q0.94714-1.4486 2.73-1.4486 1.7829 0 2.8414 1.4486 1.0771 1.4486 1.0771 3.3057 0 1.8386-1.17 3.12-1.17 1.2814-2.9714 1.2814t-2.6186-1.0029q-0.81715-1.0214-0.81715-2.86 0-2.3957 0.92858-3.8443zm0.81714 0.98429q-0.24143 0.72429-0.37143 1.4486-0.11143 0.72429-0.11143 1.3557 0 0.61286 0.0929 1.1329 0.0929 0.50143 0.31572 1.0029 0.22285 0.48286 0.66857 0.78 0.44572 0.27857 1.0586 0.27857 1.2443 0 2.08-1.0214 0.85429-1.0214 0.85429-2.47t-0.78-2.8043q-0.76143-1.3743-1.8757-1.3743-0.66857 0-1.17 0.46429-0.50143 0.46429-0.76143 1.2071z"/><path d="m144.97 8.7369q1.69 0 2.34 1.3743 0.35286 0.72429 0.57572 1.3743 0.22286 0.65 0.29714 1.7829 0.11143 1.7271 0.11143 3.9372 0 2.1914-1.0586 3.4914-1.04 1.3186-3.0643 1.3186-2.0057 0-3.3429-1.3 0.37143-0.37143 0.79857-0.37143 0.44572 0 1.2072 0.37143 0.78 0.39 1.6529 0.39 0.87287 0 1.4486-0.40857 0.57572-0.39 0.85429-1.1143 0.46429-1.2814 0.46429-3.1572 0-0.27857-0.0557-2.0614-0.50143 1.5229-1.43 2.5257-0.92858 0.98429-2.0986 0.98429-1.17 0-1.7272-1.04-0.53857-1.0586-0.53857-2.3957t0.37143-2.6q0.37143-1.2814 1.2071-2.1914 0.83572-0.91 1.9872-0.91zm-1.9686 2.8229q-0.24142 0.81715-0.35285 1.5414-0.11143 0.72429-0.11143 1.4671 0 0.72429 0.29714 1.6157 0.31572 0.89143 0.91 0.89143 1.17 0 2.08-1.7457 0.91001-1.7643 0.91001-3.5472 0-0.61286-0.57572-1.3743-0.55715-0.78-1.4114-0.78-0.59429 0-1.0586 0.55714-0.44572 0.55714-0.68715 1.3743z"/></g></svg>
